<?xml version="1.0" encoding="utf-8"?>
<!-- Generator: Adobe Illustrator 28.3.0, SVG Export Plug-In . SVG Version: 6.00 Build 0)  -->
<svg version="1.1" id="Layer_1" xmlns="http://www.w3.org/2000/svg" xmlns:xlink="http://www.w3.org/1999/xlink" x="0px" y="0px"
	 viewBox="0 0 510 498" style="enable-background:new 0 0 510 498;" xml:space="preserve">
	<g>
		<path d="M187,0c6.3,0,12.7,0,19,0c1.9,0.3,3.9,0.8,5.8,1c23,2.1,44.6,8.7,64.7,19.8c35.4,19.7,60,48.8,75.5,86
			c49.7,119.5,99.5,238.9,149.2,358.3c2.7,6.5,5.4,13.1,8.3,20c-6,2.1-11.4,4.5-17,5.7c-12.4,2.7-25,4.8-37.5,7.1
			c-6.3,0-12.7,0-19,0c-7.9-1.1-15.8-1.7-23.6-3.4c-58-13.1-99-47-121.9-101.7c-46.9-111.8-93.3-223.7-139.9-335.6
			c-6.1-14.7-12.2-29.3-18.5-44.4c6.1-2.1,11.6-4.6,17.4-5.8C161.9,4.4,174.5,2.3,187,0z"/>
		<path d="M0,366c2.9-9.6,4.7-19.8,9-28.7c12.9-27,34.8-42.8,64.3-47c42-6,79.8,18,93.1,59.7c12.7,39.8,28.8,78.1,45,116.5
			c2.6,6.1,5.1,12.2,7.8,18.5c-15.1,6.3-30.4,10.3-46.4,12c-1.9,0.2-3.9,0.7-5.8,1.1c-8,0-16,0-24,0c-5.4-0.8-10.8-1.5-16.2-2.5
			c-38.8-7-71.5-25.1-97.5-54.8C19.9,430,10.6,418.9,6.1,405C3.7,397.4,2,389.7,0,382C0,376.7,0,371.3,0,366z"/>
	</g>
</svg>
