<svg width="50" height="50" viewBox="0 0 50 50" fill="none" xmlns="http://www.w3.org/2000/svg">
<g clip-path="url(#clip0_55_399)">
<circle cx="24.9997" cy="25" r="25" transform="rotate(178 24.9997 25)" fill="url(#paint0_radial_55_399)"/>
<g clip-path="url(#clip1_55_399)">
<path d="M5.16662 40.1613C4.99996 39.8925 4.72218 39.7312 4.77773 39.6237C4.83329 39.4624 5.05551 39.3549 5.22218 39.1936C5.33329 39.3549 5.55551 39.4624 5.55551 39.6237C5.55551 39.7312 5.33329 39.8925 5.16662 40.1613Z" fill="white"/>
<path d="M14.0554 23.0646C13.6665 22.5269 13.6109 21.9893 13.9443 21.4517C14.2776 20.914 14.7221 20.8065 15.7776 20.914C15.7776 20.4839 15.7776 20.0001 15.7776 19.5162C15.1109 19.7312 14.3887 19.6775 13.9443 18.9248C13.6665 18.4409 13.7221 17.9033 14.1109 17.4732C14.6665 16.8818 15.3332 16.9355 16.0554 17.3657C15.6665 16.6667 15.6109 16.0216 16.1109 15.4839C16.6665 14.9463 17.2776 15.0538 17.9443 15.3764C17.6109 14.3549 17.7221 13.8173 18.2776 13.4409C18.7776 13.1183 19.3332 13.1183 19.8332 13.4409C20.3887 13.8173 20.4998 14.3549 20.2221 15.1613C20.7221 15.1613 21.2221 15.1076 21.7776 15.1076C21.6109 14.4624 21.5554 13.7097 22.3887 13.3872C22.7776 13.2259 23.4443 13.2796 23.8332 13.4947C24.4998 13.8173 24.4998 14.4624 24.3332 15.1076C24.7776 15.1076 25.2776 15.1076 25.7776 15.1076C25.6109 14.4624 25.6109 13.7097 26.3887 13.3872C26.7776 13.2259 27.4443 13.2259 27.8332 13.4409C28.5554 13.8173 28.5554 14.5162 28.3332 15.1613C28.8332 15.1613 29.3887 15.1613 29.8887 15.1613C29.8887 14.8925 29.7221 14.57 29.8332 14.2474C29.9443 13.9248 30.1665 13.6022 30.4998 13.3872C30.9998 13.0646 31.4998 13.1721 31.9998 13.4947C32.5554 13.9248 32.6109 14.4624 32.2221 15.3764C32.9443 15.0538 33.6109 14.9463 34.1665 15.5377C34.6109 16.0753 34.5554 16.613 34.1665 17.3119C34.9998 16.9355 35.7221 16.8818 36.2221 17.5807C36.5554 18.0646 36.5554 18.6022 36.1665 19.0861C35.7221 19.6775 35.1109 19.7312 34.4443 19.4624C34.4998 19.8925 34.4998 20.3764 34.5554 20.699C35.0554 20.8603 35.7221 20.9678 36.1665 21.2904C36.7221 21.7205 36.6109 22.3657 36.3332 23.0108C37.1109 22.6882 37.7776 22.6882 38.2776 23.3872C38.6109 23.871 38.6109 24.4087 38.2776 24.8925C37.7776 25.5377 37.1109 25.5377 36.3887 25.2151C36.7221 25.8603 36.7221 26.4517 36.2776 26.9893C36.2221 27.0431 36.2221 27.0431 36.1665 27.0968C35.6665 27.2581 35.1665 27.3657 34.6665 27.5269C34.6665 27.8495 34.6665 28.2259 34.6665 28.5484C35.1665 28.7097 35.6665 28.8173 36.2221 28.9786C36.2221 29.0323 36.2776 29.0323 36.3332 29.0323C36.7221 29.57 36.8332 30.1613 36.4443 30.699C35.9998 31.3441 35.3332 31.3441 34.6109 31.0753C34.9443 32.742 34.1665 33.4409 32.7776 33.0646C32.6109 33.6022 32.6109 34.2474 32.2776 34.6775C31.8887 35.2689 31.2221 35.1614 30.4998 34.8925C30.7776 35.699 30.7776 36.3979 29.9443 36.828C29.2776 37.0968 28.7776 37.0968 28.3332 36.7743C27.7221 36.3441 27.6665 35.7527 27.8887 35.1076C27.3887 35.1076 26.8887 35.1076 26.3887 35.1076C26.5554 35.7527 26.5554 36.5054 25.8332 36.828C25.4443 36.9893 24.7776 36.9893 24.3887 36.828C23.6665 36.5054 23.6665 35.8065 23.8332 35.1076C23.3332 35.1076 22.8887 35.1076 22.3332 35.1076C22.4998 35.7527 22.4998 36.5054 21.6665 36.8818C21.1665 37.1506 20.6665 37.0968 20.2221 36.7205C19.6109 36.2366 19.6109 35.6452 19.8332 35.1614C19.2776 35.0538 18.6109 35.0001 18.1665 34.7312C17.5554 34.3549 17.6109 33.7097 17.7776 33.2259C17.2221 33.0646 16.5554 33.0646 16.1109 32.742C15.4998 32.3657 15.6109 31.7205 15.8332 31.0216C15.0554 31.2366 14.3332 31.2366 13.8887 30.5377C13.5554 30.0001 13.6665 29.4087 14.0554 28.9248L14.1109 28.871C14.6109 28.7097 15.1665 28.6022 15.6665 28.4409C15.6665 28.1183 15.6665 27.6882 15.6665 27.4194C15.1109 27.2581 14.6109 27.1506 14.1665 26.9893C14.1109 26.9355 14.0554 26.8818 13.9998 26.828C13.5554 26.2366 13.5554 25.6452 13.9998 25.0538C14.0554 25.0001 14.1109 24.9463 14.1109 24.8925C14.6109 24.7312 15.0554 24.6237 15.6109 24.4624C15.6109 24.1936 15.6109 23.7635 15.6109 23.4947C15.1109 23.3872 14.6109 23.2259 14.1109 23.1183C14.1665 23.1721 14.1109 23.1183 14.0554 23.0646ZM18.3332 15.5915C18.3887 15.9678 18.3887 16.5054 18.4443 16.9893C18.8887 16.9893 19.3332 16.9355 19.7221 16.9355C19.7776 16.4517 19.8332 16.0216 19.8332 15.6452C19.3332 15.6452 18.8332 15.5915 18.3332 15.5915ZM17.7221 18.871C17.7221 18.4409 17.7776 18.0108 17.7776 17.6345C17.2776 17.5807 16.7776 17.5807 16.3332 17.5269C16.3332 17.957 16.3887 18.4947 16.4443 18.9248C16.8332 18.9248 17.3332 18.871 17.7221 18.871ZM30.5554 16.9355C30.9998 16.9355 31.4443 16.9893 31.7776 16.9893C31.8332 16.5054 31.8887 15.9678 31.9443 15.5915C31.4443 15.5915 30.8887 15.5915 30.4443 15.5915C30.4998 16.0216 30.4998 16.4517 30.5554 16.9355ZM32.4998 18.8173C32.9998 18.871 33.4443 18.871 33.8332 18.9248C33.8887 18.4409 33.8887 17.957 33.9443 17.5269C33.4998 17.5807 32.9998 17.5807 32.5554 17.6345C32.4998 18.0108 32.4998 18.4409 32.4998 18.8173ZM34.6109 24.6775C35.1109 24.7312 35.5554 24.785 35.8887 24.785C35.8887 24.3011 35.8887 23.8173 35.8887 23.3872C35.4998 23.4409 35.0554 23.4409 34.6109 23.4947C34.6109 23.871 34.6109 24.3011 34.6109 24.6775ZM28.4998 34.4624C28.9443 34.4624 29.4443 34.4624 29.8887 34.4624C29.8332 34.0323 29.8332 33.6022 29.7776 33.2259C29.3332 33.2259 28.9443 33.2259 28.5554 33.2259C28.5554 33.656 28.4998 34.0323 28.4998 34.4624ZM21.7776 34.4624C21.7221 34.0323 21.7221 33.6022 21.6665 33.2259C21.2776 33.2259 20.8332 33.2259 20.4443 33.2259C20.3887 33.656 20.3887 34.0861 20.3332 34.4624C20.8887 34.4624 21.3332 34.4624 21.7776 34.4624ZM17.7221 29.4087C17.2776 29.3549 16.8332 29.3549 16.4443 29.3011C16.4443 29.7312 16.4443 30.1614 16.4443 30.5915C16.8887 30.5377 17.3332 30.5377 17.7221 30.4839C17.7221 30.1076 17.7221 29.7312 17.7221 29.4087ZM32.6109 30.4839C33.0554 30.5377 33.4998 30.5377 33.8887 30.5915C33.8887 30.1614 33.8332 29.7312 33.8332 29.3011C33.4443 29.3011 33.0554 29.3549 32.6109 29.3549C32.6109 29.7312 32.6109 30.1076 32.6109 30.4839ZM18.4998 31.2904C18.4998 31.7205 18.4443 32.1506 18.4443 32.5269C18.8887 32.5269 19.3332 32.4732 19.7221 32.4732C19.6665 32.0968 19.6665 31.7205 19.6109 31.3441C19.2221 31.3441 18.8887 31.2904 18.4998 31.2904ZM30.6665 31.3441C30.6109 31.7205 30.6109 32.0968 30.5554 32.4732C30.9998 32.4732 31.4443 32.5269 31.8332 32.5269C31.8332 32.0968 31.7776 31.7205 31.7776 31.2904C31.4443 31.2904 31.0554 31.3441 30.6665 31.3441ZM24.6109 33.2796C24.5554 33.7097 24.5554 34.0861 24.4998 34.4624C24.9443 34.4624 25.3887 34.4624 25.7776 34.4624C25.7221 34.0861 25.7221 33.656 25.6665 33.2796C25.3332 33.2796 24.9443 33.2796 24.6109 33.2796ZM27.7221 16.828C27.7776 16.3979 27.7776 16.0216 27.8332 15.6452C27.3887 15.6452 26.9443 15.6452 26.4998 15.6452C26.5554 16.0216 26.5554 16.4517 26.6109 16.828C26.9998 16.828 27.3887 16.828 27.7221 16.828ZM23.6665 16.828C23.7221 16.3979 23.7221 16.0216 23.7776 15.6452C23.3332 15.6452 22.8887 15.6452 22.4443 15.6452C22.4998 16.0216 22.4998 16.3979 22.5554 16.828C22.9443 16.828 23.2776 16.828 23.6665 16.828ZM16.4998 21.5592C16.4998 21.9893 16.4998 22.3657 16.4998 22.742C16.8887 22.6882 17.2776 22.6882 17.6665 22.6345C17.6665 22.2581 17.6665 21.9355 17.6665 21.613C17.2776 21.613 16.8887 21.5592 16.4998 21.5592ZM33.7776 22.6882C33.7776 22.3119 33.7776 21.8818 33.7776 21.5054C33.3887 21.5592 32.9998 21.5592 32.6665 21.5592C32.6665 21.9355 32.6665 22.2581 32.6665 22.5807C33.0554 22.6882 33.3887 22.6882 33.7776 22.6882ZM33.7776 25.4839C33.3887 25.5377 33.0554 25.5377 32.7221 25.5377C32.7221 25.914 32.7221 26.1829 32.7221 26.5054C33.1109 26.5592 33.4443 26.5592 33.7776 26.613C33.7776 26.2366 33.7776 25.914 33.7776 25.4839ZM17.6109 26.5592C17.6109 26.2366 17.6109 25.914 17.6109 25.5377C17.2221 25.5377 16.8887 25.4839 16.5554 25.4839C16.5554 25.8603 16.5554 26.2366 16.5554 26.613C16.8887 26.613 17.2221 26.5592 17.6109 26.5592ZM21.6665 18.7635C21.6665 18.3872 21.6665 18.0646 21.6665 17.742C21.2776 17.742 20.8887 17.742 20.5554 17.742C20.5554 18.1183 20.6109 18.4409 20.6109 18.7635C20.9443 18.7635 21.2776 18.7635 21.6665 18.7635ZM28.6109 18.7097C28.9998 18.7097 29.3332 18.7097 29.6665 18.7097C29.6665 18.3334 29.7221 18.0108 29.7221 17.6345C29.3332 17.6345 28.9443 17.6882 28.6109 17.6882C28.6109 18.0646 28.6109 18.3872 28.6109 18.7097ZM19.6109 20.6452C19.6109 20.3226 19.6109 20.0001 19.6109 19.6237C19.2221 19.6237 18.8887 19.6237 18.4998 19.6237C18.4998 20.0001 18.5554 20.3764 18.5554 20.699C18.9443 20.699 19.2221 20.699 19.6109 20.6452ZM23.6665 32.4194C23.6665 32.0968 23.6109 31.7743 23.6109 31.5054C23.2776 31.5054 22.9443 31.5054 22.6665 31.5054C22.6665 31.828 22.6109 32.1506 22.6109 32.4194C22.9443 32.4194 23.2776 32.4194 23.6665 32.4194ZM26.6109 32.4194C26.9998 32.4194 27.3887 32.4194 27.7221 32.4194C27.6665 32.0968 27.6665 31.7743 27.6109 31.4517C27.2776 31.4517 26.9998 31.4517 26.6665 31.4517C26.6665 31.7743 26.6665 32.0968 26.6109 32.4194ZM31.7776 19.6237C31.4443 19.6237 31.0554 19.6775 30.7221 19.6775C30.7221 20.0001 30.7776 20.3226 30.7776 20.6452C31.1109 20.6452 31.4443 20.699 31.7776 20.699C31.7221 20.3226 31.7221 20.0001 31.7776 19.6237ZM24.6109 17.742C24.6109 18.0108 24.6665 18.3334 24.6665 18.6022C24.9998 18.6022 25.2776 18.6022 25.6109 18.6022C25.6109 18.2796 25.6665 18.0108 25.6665 17.742C25.3332 17.742 24.9998 17.742 24.6109 17.742ZM30.7776 27.5807C30.7776 27.9033 30.7776 28.1721 30.7776 28.4409C31.1109 28.4409 31.4443 28.4409 31.7221 28.4409C31.7221 28.1183 31.7221 27.7958 31.7221 27.5269C31.3887 27.5269 31.1109 27.5807 30.7776 27.5807ZM18.5554 28.4947C18.8887 28.4947 19.1665 28.4409 19.4998 28.4409C19.4998 28.1183 19.4998 27.8495 19.4998 27.5807C19.1665 27.5807 18.8887 27.5269 18.5554 27.5269C18.5554 27.8495 18.5554 28.1721 18.5554 28.4947ZM21.5554 29.57C21.2221 29.57 20.9443 29.57 20.6665 29.57C20.6665 29.8925 20.6665 30.1614 20.6665 30.3764C20.9998 30.3764 21.2776 30.3764 21.5554 30.3764C21.5554 30.1076 21.5554 29.8388 21.5554 29.57ZM28.7776 30.3764C29.1109 30.3764 29.3887 30.3764 29.7221 30.3764C29.7221 30.0538 29.6665 29.785 29.6665 29.57C29.3332 29.57 29.0554 29.57 28.7776 29.57C28.7776 29.8388 28.7776 30.1076 28.7776 30.3764ZM19.4998 23.7097C19.2221 23.7097 18.9443 23.656 18.6665 23.656C18.6665 23.9786 18.6665 24.3011 18.6665 24.57C18.9443 24.5162 19.2221 24.5162 19.4998 24.4624C19.4998 24.1936 19.4998 23.9786 19.4998 23.7097ZM31.6665 24.5162C31.6665 24.1936 31.6665 23.9248 31.6665 23.6022C31.3887 23.6022 31.1109 23.656 30.8332 23.656C30.8332 23.9248 30.8332 24.1936 30.8332 24.4087C31.1109 24.5162 31.3887 24.5162 31.6665 24.5162ZM22.7776 20.4839C23.0554 20.4839 23.2776 20.4839 23.4998 20.4302C23.4998 20.1613 23.4998 19.9463 23.4998 19.7312C23.2221 19.7312 22.9443 19.7312 22.6665 19.7312C22.7221 20.0001 22.7221 20.2151 22.7776 20.4839ZM26.7221 19.785C26.7221 20.0538 26.7776 20.2689 26.7776 20.4839C27.0554 20.4839 27.2776 20.4839 27.4998 20.4839C27.4998 20.2151 27.5554 20.0001 27.5554 19.785C27.3332 19.785 27.1109 19.785 26.7221 19.785ZM24.7221 30.3226C25.0554 30.3226 25.2776 30.3226 25.5554 30.3226C25.5554 30.0538 25.5554 29.8388 25.4998 29.6237C25.2221 29.6237 24.9998 29.6237 24.7221 29.6237C24.7776 29.8925 24.7221 30.1076 24.7221 30.3226ZM20.6665 21.7205C20.6665 21.9893 20.7221 22.2581 20.7221 22.5269C20.9998 22.4732 21.1665 22.4732 21.3887 22.4194C21.3887 22.2044 21.3887 21.9893 21.3887 21.7743C21.1665 21.7743 20.9443 21.7205 20.6665 21.7205ZM28.8332 21.7743C28.8332 22.0431 28.8887 22.2044 28.8887 22.4732C29.1109 22.4732 29.3332 22.4732 29.5554 22.5269C29.5554 22.2581 29.5554 22.0431 29.5554 21.7743C29.3332 21.7205 29.1665 21.7743 28.8332 21.7743ZM21.3887 25.7527C21.1665 25.7527 20.9998 25.699 20.7776 25.699C20.7776 25.9678 20.7776 26.1291 20.7776 26.3441C20.9998 26.3441 21.1665 26.3441 21.3887 26.3441C21.3887 26.1829 21.3887 25.9678 21.3887 25.7527ZM28.9443 26.3979C29.1665 26.3979 29.3332 26.3979 29.4998 26.4517C29.4998 26.1829 29.4998 26.0216 29.4998 25.8065C28.9998 25.6452 28.8332 25.8603 28.9443 26.3979ZM26.7221 28.2259C27.4443 28.4409 27.6665 28.2796 27.3887 27.5269C27.1109 27.7958 26.9443 28.0108 26.7221 28.2259ZM22.7776 28.3334C23.0554 28.3334 23.2221 28.3334 23.3887 28.3334C23.4998 27.8495 23.3332 27.6345 22.7776 27.7958C22.7776 27.957 22.7776 28.1183 22.7776 28.3334Z" fill="white"/>
<path d="M36.0553 27.0431C36.1109 26.9893 36.1109 26.9893 36.1664 26.9355C36.3331 26.8818 36.4442 26.828 36.6109 26.7742C37.222 26.5592 37.8331 26.7205 38.222 27.2044C38.6109 27.742 38.5553 28.2259 38.222 28.7635C37.8331 29.2474 37.222 29.4087 36.6109 29.1398C36.4442 29.0861 36.3331 29.0323 36.1664 28.9785C36.1109 28.9785 36.1109 28.9248 36.0553 28.9248C35.7775 28.2796 35.722 27.6882 36.0553 27.0431Z" fill="white"/>
<path d="M14.0554 26.9355C14.111 26.9893 14.1665 27.0431 14.2221 27.0968C14.5554 27.742 14.4999 28.3334 14.2221 28.9248L14.1665 28.9785C13.9999 29.0323 13.8332 29.0861 13.6665 29.1398C13.0554 29.3549 12.4443 29.1936 12.0554 28.7097C11.7221 28.2259 11.6665 27.742 12.0554 27.2044C12.3887 26.7205 12.9999 26.5592 13.611 26.7742C13.7776 26.828 13.9443 26.8818 14.0554 26.9355Z" fill="white"/>
<path d="M14.0554 23.0646C14.111 23.1183 14.1665 23.1721 14.2221 23.2259C14.4999 23.8173 14.5554 24.4087 14.2221 25C14.1665 25.0538 14.111 25.1076 14.111 25.1613C13.9443 25.2151 13.8332 25.2689 13.6665 25.3226C13.0554 25.5377 12.4443 25.3764 12.0554 24.8925C11.6665 24.3549 11.7221 23.8173 12.111 23.3334C12.4999 22.8495 13.0554 22.6882 13.6665 22.9033C13.7776 22.957 13.9443 23.0108 14.0554 23.0646Z" fill="white"/>
<path d="M13.1664 18.9785C13.8887 18.9785 14.4998 19.5699 14.4442 20.2688C14.4442 20.9677 13.8331 21.5591 13.1109 21.5054C12.3887 21.5054 11.7775 20.914 11.8331 20.2151C11.8331 19.5161 12.4442 18.9247 13.1664 18.9785Z" fill="white"/>
<path d="M37.1668 21.5054C36.4446 21.5054 35.8335 20.914 35.8335 20.2688C35.8335 19.5699 36.4446 18.9785 37.1113 18.9785C37.8335 18.9785 38.4446 19.5699 38.4446 20.2151C38.4446 20.914 37.8891 21.5054 37.1668 21.5054Z" fill="white"/>
<path d="M25.1112 13.7634C24.3889 13.7634 23.7778 13.172 23.7778 12.4731C23.7778 11.7741 24.3889 11.1827 25.1667 11.1827C25.8889 11.1827 26.4445 11.8279 26.4445 12.4731C26.4445 13.172 25.8334 13.7634 25.1112 13.7634Z" fill="white"/>
<path d="M22.4446 12.4731C22.4446 13.1721 21.8335 13.7635 21.1113 13.7635C20.4446 13.7635 19.8335 13.1721 19.8335 12.5269C19.8335 11.828 20.4446 11.2366 21.1668 11.2366C21.8335 11.2366 22.4446 11.828 22.4446 12.4731Z" fill="white"/>
<path d="M29.1664 11.2366C29.8887 11.2366 30.4998 11.8817 30.4442 12.5269C30.4442 13.1721 29.8331 13.7635 29.1109 13.7635C28.3887 13.7635 27.7775 13.1183 27.8331 12.4731C27.8887 11.7742 28.4998 11.2366 29.1664 11.2366Z" fill="white"/>
<path d="M16.4442 33.8172C16.4442 34.5161 15.7776 35.0537 15.1109 35.0537C14.4442 35 13.8887 34.4086 13.8887 33.7634C13.8887 33.0645 14.5553 32.5269 15.222 32.5269C15.8887 32.5806 16.4442 33.1183 16.4442 33.8172Z" fill="white"/>
<path d="M36.4443 33.7635C36.4443 34.4624 35.7777 35.0538 35.111 35C34.4443 34.9462 33.8332 34.4086 33.8888 33.7097C33.8888 33.0108 34.5554 32.4194 35.2221 32.4731C35.8888 32.5269 36.4443 33.1183 36.4443 33.7635Z" fill="white"/>
<path d="M34.4443 35.7527C34.4443 36.3978 33.8332 36.9892 33.1665 36.9892C32.4443 36.9892 31.8332 36.3978 31.8888 35.6989C31.9443 35.0537 32.5554 34.4623 33.2221 34.5161C33.8888 34.5161 34.4443 35.0537 34.4443 35.7527Z" fill="white"/>
<path d="M24.4442 37.6344C24.4442 38.3333 23.8331 38.9247 23.1109 38.9247C22.3887 38.9247 21.7775 38.2795 21.8331 37.6344C21.8331 36.9892 22.4442 36.3978 23.1109 36.3978C23.8331 36.3978 24.4442 36.9892 24.4442 37.6344Z" fill="white"/>
<path d="M27.1664 36.3978C27.8887 36.3978 28.4998 37.043 28.4442 37.6881C28.4442 38.3871 27.7776 38.9247 27.0553 38.9247C26.3887 38.8709 25.7776 38.2795 25.8331 37.6344C25.8331 36.9354 26.4442 36.344 27.1664 36.3978Z" fill="white"/>
<path d="M14.422 31.856C14.4317 31.1731 13.8676 30.6119 13.162 30.6025C12.4563 30.5931 11.8764 31.139 11.8667 31.8219C11.857 32.5048 12.4211 33.066 13.1268 33.0754C13.8324 33.0848 14.4123 32.5388 14.422 31.856Z" fill="white"/>
<path d="M37.1113 30.5914C37.8335 30.5914 38.3891 31.1291 38.3891 31.828C38.3891 32.5269 37.8335 33.0645 37.1113 33.0645C36.3891 33.0645 35.8335 32.5269 35.8335 31.828C35.8891 31.1828 36.4446 30.5914 37.1113 30.5914Z" fill="white"/>
<path d="M39.1832 27.2576C39.8888 27.2485 40.4532 26.6876 40.4438 26.0048C40.4345 25.3219 39.8549 24.7757 39.1492 24.7847C38.4436 24.7938 37.8792 25.3547 37.8885 26.0376C37.8979 26.7204 38.4775 27.2667 39.1832 27.2576Z" fill="white"/>
<path d="M17.1664 36.9355C16.4998 36.9355 15.8887 36.3979 15.8331 35.7527C15.7775 35.0538 16.3887 34.4624 17.1109 34.4624C17.7775 34.4624 18.3887 35 18.3887 35.699C18.4442 36.3441 17.8887 36.9355 17.1664 36.9355Z" fill="white"/>
<path d="M12.3887 22.1505C12.3887 22.8494 11.8331 23.3871 11.1109 23.3333C10.4442 23.3333 9.88867 22.7957 9.88867 22.1505C9.88867 21.4516 10.4442 20.9139 11.1665 20.9677C11.8887 20.9677 12.3887 21.5053 12.3887 22.1505Z" fill="white"/>
<path d="M39.1665 23.3871C38.4442 23.3871 37.8887 22.8495 37.8887 22.1506C37.8887 21.5054 38.3887 20.9678 39.1109 20.9678C39.8331 20.9678 40.3887 21.4516 40.3887 22.1506C40.3887 22.8495 39.8887 23.3871 39.1665 23.3871Z" fill="white"/>
<path d="M11.1109 24.8387C11.8331 24.8387 12.3887 25.3764 12.3887 26.0753C12.3887 26.7742 11.8331 27.3119 11.1109 27.3119C10.4442 27.3119 9.88867 26.7742 9.88867 26.1291C9.88867 25.3764 10.3887 24.8387 11.1109 24.8387Z" fill="white"/>
<path d="M31.1664 36.4517C31.8887 36.4517 32.3887 36.9893 32.3887 37.6882C32.3887 38.3334 31.8331 38.8172 31.1109 38.8172C30.3887 38.8172 29.8887 38.2796 29.8887 37.5807C29.9442 36.9355 30.4998 36.4517 31.1664 36.4517Z" fill="white"/>
<path d="M19.2224 36.4516C19.8891 36.4516 20.3891 36.9892 20.3891 37.6881C20.3891 38.3871 19.8335 38.8709 19.1113 38.8709C18.3891 38.8709 17.8891 38.2795 17.9446 37.5806C17.9446 36.8817 18.5002 36.3978 19.2224 36.4516Z" fill="white"/>
<path d="M36.3888 14.4623C36.3888 15.1075 35.8332 15.6451 35.1666 15.6451C34.4443 15.6451 33.9443 15.1075 33.9443 14.4086C33.9443 13.7634 34.4999 13.2795 35.2221 13.2795C35.8888 13.2795 36.3888 13.7634 36.3888 14.4623Z" fill="white"/>
<path d="M15.1666 13.2258C15.8888 13.2258 16.3888 13.7635 16.3888 14.4086C16.3888 15.1075 15.8332 15.5914 15.1666 15.5914C14.4999 15.5914 13.9443 15.0538 13.9443 14.4086C13.9443 13.7635 14.4443 13.2258 15.1666 13.2258Z" fill="white"/>
<path d="M13.1109 15.1613C13.7776 15.1613 14.3331 15.6451 14.3331 16.3441C14.3331 16.9892 13.8331 17.5268 13.1109 17.5268C12.4442 17.5268 11.8887 17.043 11.8887 16.3441C11.9442 15.6989 12.4442 15.1613 13.1109 15.1613Z" fill="white"/>
<path d="M37.1109 15.1613C37.8332 15.1613 38.3332 15.6451 38.3332 16.2903C38.3332 16.9892 37.8332 17.4731 37.1665 17.4731C36.4443 17.4731 35.9443 16.9892 35.9443 16.3441C35.8887 15.6989 36.4443 15.1613 37.1109 15.1613Z" fill="white"/>
<path d="M39.1109 31.0753C38.4442 31.0753 37.8887 30.5377 37.8887 29.8925C37.8887 29.2473 38.4442 28.7097 39.1109 28.7097C39.7776 28.7097 40.3331 29.2473 40.3331 29.8925C40.3331 30.5914 39.8331 31.0753 39.1109 31.0753Z" fill="white"/>
<path d="M24.3332 10.5377C24.3332 11.1828 23.8332 11.7204 23.1666 11.7204C22.4999 11.7204 21.9443 11.2366 21.9443 10.5914C21.9443 9.94625 22.4443 9.40862 23.111 9.40862C23.8332 9.35486 24.3332 9.89249 24.3332 10.5377Z" fill="white"/>
<path d="M27.1665 9.35486C27.8332 9.35486 28.3887 9.89249 28.3332 10.5377C28.3332 11.1828 27.7776 11.7205 27.1109 11.6667C26.4443 11.6667 25.8887 11.1291 25.9443 10.4839C25.9443 9.83873 26.4998 9.35486 27.1665 9.35486Z" fill="white"/>
<path d="M11.1109 31.0753C10.4443 31.0753 9.88871 30.5377 9.94427 29.8925C9.94427 29.2473 10.4998 28.7097 11.1665 28.7635C11.8332 28.7635 12.3887 29.3011 12.3332 29.9463C12.3332 30.5914 11.7776 31.0753 11.1109 31.0753Z" fill="white"/>
<path d="M33.1109 13.6559C32.4443 13.6559 31.8887 13.1182 31.9443 12.4731C31.9443 11.8279 32.4998 11.2903 33.222 11.344C33.8887 11.344 34.3887 11.8817 34.3887 12.5268C34.3332 13.172 33.8332 13.6559 33.1109 13.6559Z" fill="white"/>
<path d="M17.1665 11.2903C17.8331 11.2903 18.3887 11.8279 18.3331 12.4731C18.3331 13.1182 17.7776 13.6559 17.0553 13.6021C16.3887 13.6021 15.8887 13.0645 15.8887 12.4193C15.9442 11.8279 16.4998 11.2903 17.1665 11.2903Z" fill="white"/>
<path d="M39.1666 17.1505C39.8333 17.1505 40.3888 17.6881 40.3888 18.3333C40.3888 18.9785 39.8333 19.4623 39.2222 19.4623C38.5555 19.4623 37.9999 18.9247 37.9999 18.2795C37.9444 17.6344 38.4999 17.1505 39.1666 17.1505Z" fill="white"/>
<path d="M41.111 22.957C41.7221 22.957 42.3332 23.4409 42.3332 24.0861C42.3332 24.6775 41.8332 25.2689 41.1666 25.2689C40.5554 25.2689 39.9999 24.7312 39.9443 24.1398C39.9443 23.4947 40.4999 22.957 41.111 22.957Z" fill="white"/>
<path d="M12.3332 18.2795C12.3332 18.9247 11.8332 19.4623 11.1666 19.4623C10.4999 19.4623 9.94434 18.9247 9.94434 18.2795C9.94434 17.6344 10.4999 17.1505 11.111 17.1505C11.7777 17.1505 12.3332 17.6344 12.3332 18.2795Z" fill="white"/>
<path d="M31.111 9.40857C31.7221 9.40857 32.2777 9.9462 32.2777 10.5376C32.2777 11.129 31.7221 11.6666 31.111 11.6666C30.4999 11.6666 29.9443 11.129 29.9443 10.5376C29.9443 9.9462 30.4999 9.40857 31.111 9.40857Z" fill="white"/>
<path d="M29.1669 38.4408C29.8335 38.4408 30.3335 38.9785 30.3335 39.6236C30.3335 40.2688 29.7224 40.8064 29.0558 40.7527C28.3891 40.6989 27.8891 40.1613 27.9446 39.5699C28.0002 38.9247 28.5558 38.3871 29.1669 38.4408Z" fill="white"/>
<path d="M26.3335 39.6236C26.3335 40.2688 25.7224 40.7527 25.0558 40.7527C24.3891 40.6989 23.8891 40.1613 23.9446 39.5161C24.0002 38.871 24.5002 38.3871 25.1669 38.4408C25.8891 38.4408 26.3891 38.9785 26.3335 39.6236Z" fill="white"/>
<path d="M22.3332 39.5699C22.3332 40.2151 21.8332 40.7527 21.1666 40.7527C20.4999 40.7527 19.9443 40.2151 19.9443 39.5699C19.9443 38.9248 20.4999 38.4409 21.1666 38.4409C21.7777 38.4409 22.3332 38.9248 22.3332 39.5699Z" fill="white"/>
<path d="M10.3332 24.1398C10.3332 24.785 9.77767 25.2689 9.111 25.2689C8.44434 25.2689 7.94434 24.6775 7.94434 24.0861C7.99989 23.4947 8.49989 23.0108 9.111 23.0108C9.77767 22.957 10.3332 23.4947 10.3332 24.1398Z" fill="white"/>
<path d="M41.1666 26.828C41.7777 26.828 42.3332 27.3656 42.3332 27.957C42.3332 28.5484 41.7777 29.0861 41.111 29.0861C40.4999 29.0861 39.9999 28.5484 39.9443 27.957C39.9443 27.3656 40.4999 26.828 41.1666 26.828Z" fill="white"/>
<path d="M19.1668 11.6666C18.5557 11.6666 17.9445 11.129 18.0001 10.5376C18.0001 9.89244 18.5557 9.40857 19.2223 9.40857C19.8334 9.40857 20.389 9.9462 20.389 10.5376C20.3334 11.129 19.7779 11.6666 19.1668 11.6666Z" fill="white"/>
<path d="M7.99982 27.9032C8.05538 27.3118 8.61093 26.7742 9.2776 26.8279C9.88871 26.8817 10.3887 27.4193 10.3887 28.0107C10.3332 28.6021 9.7776 29.1398 9.11093 29.086C8.44427 29.0322 7.94427 28.4946 7.99982 27.9032Z" fill="white"/>
<path d="M14.3333 35.7527C14.2777 36.3441 13.7222 36.8817 13.111 36.8279C12.4999 36.7742 11.9999 36.2365 12.0555 35.6451C12.111 35.0538 12.6666 34.5161 13.2777 34.5699C13.8333 34.6236 14.3333 35.1613 14.3333 35.7527Z" fill="white"/>
<path d="M38.3333 35.7527C38.3333 36.3441 37.7222 36.8818 37.1111 36.8818C36.5 36.828 36 36.2904 36 35.699C36 35.1076 36.6111 34.5699 37.2222 34.5699C37.8333 34.6237 38.3333 35.1613 38.3333 35.7527Z" fill="white"/>
<path d="M15.111 38.7634C14.4999 38.7634 13.9443 38.2258 13.9443 37.6344C13.9443 37.043 14.4999 36.5054 15.1666 36.5054C15.7777 36.5054 16.2777 37.043 16.2777 37.6344C16.2777 38.2796 15.7221 38.7634 15.111 38.7634Z" fill="white"/>
<path d="M36.2777 37.6344C36.2777 38.2258 35.7221 38.7634 35.111 38.7634C34.4999 38.7634 33.9443 38.2258 33.9443 37.5806C33.9443 36.9892 34.4999 36.5054 35.111 36.5054C35.7777 36.5591 36.3332 37.043 36.2777 37.6344Z" fill="white"/>
<path d="M9.11111 21.3441C8.5 21.3441 8 20.8064 8 20.215C8 19.6236 8.55556 19.1398 9.16667 19.1398C9.77778 19.1398 10.2778 19.6774 10.2778 20.2688C10.2778 20.8602 9.72222 21.3441 9.11111 21.3441Z" fill="white"/>
<path d="M42.2777 20.2689C42.2777 20.8603 41.7222 21.3979 41.111 21.3441C40.4999 21.3441 39.9444 20.8065 39.9999 20.2151C39.9999 19.6237 40.5555 19.0861 41.1666 19.1398C41.7777 19.1398 42.2777 19.6237 42.2777 20.2689Z" fill="white"/>
<path d="M25.1111 7.52686C25.7222 7.52686 26.2778 8.01073 26.2778 8.60212C26.2778 9.19352 25.7778 9.73116 25.1111 9.67739C24.5 9.67739 24 9.19352 24 8.60212C24 8.06449 24.5 7.52686 25.1111 7.52686Z" fill="white"/>
<path d="M11.1111 34.8925C10.5 34.8925 10 34.3549 10 33.7635C10 33.1721 10.5556 32.6882 11.1667 32.6882C11.7778 32.6882 12.2778 33.2259 12.2778 33.8173C12.2778 34.4087 11.7222 34.8925 11.1111 34.8925Z" fill="white"/>
<path d="M39.111 34.8925C38.4999 34.8925 37.9444 34.3548 37.9999 33.7634C37.9999 33.172 38.5555 32.6344 39.1666 32.6882C39.7777 32.6882 40.3333 33.2258 40.2777 33.8172C40.2777 34.4086 39.7222 34.8925 39.111 34.8925Z" fill="white"/>
<path d="M16.0557 39.5699C16.0557 38.9785 16.5001 38.4946 17.1668 38.4946C17.8334 38.4946 18.3334 38.9785 18.2779 39.5699C18.2779 40.1613 17.7779 40.5914 17.1668 40.5914C16.5001 40.6452 16.0557 40.1613 16.0557 39.5699Z" fill="white"/>
<path d="M32.0557 39.6237C32.0557 39.0323 32.5001 38.5484 33.1112 38.5484C33.7779 38.4946 34.2779 38.9785 34.2779 39.6237C34.2779 40.2688 33.7779 40.6989 33.1668 40.6989C32.5001 40.6452 32.0557 40.2151 32.0557 39.6237Z" fill="white"/>
<path d="M24.2223 41.5054C24.2223 42.0968 23.7779 42.5807 23.1668 42.5807C22.5001 42.5807 22.0557 42.0968 22.0557 41.5054C22.0557 40.914 22.5557 40.4839 23.1668 40.4839C23.7779 40.4839 24.2223 40.914 24.2223 41.5054Z" fill="white"/>
<path d="M27.1668 42.5806C26.5557 42.5806 26.0557 42.1505 26.0557 41.5591C26.0557 40.9139 26.5001 40.4301 27.1668 40.4301C27.7779 40.4301 28.2779 40.8602 28.2779 41.5053C28.2779 42.0967 27.7779 42.5806 27.1668 42.5806Z" fill="white"/>
<path d="M21.1112 9.67739C20.5001 9.67739 20.0557 9.19352 20.0557 8.60212C20.0557 7.95696 20.5557 7.52686 21.2223 7.52686C21.8334 7.52686 22.2779 8.01073 22.2779 8.60212C22.2223 9.24729 21.7779 9.67739 21.1112 9.67739Z" fill="white"/>
<path d="M30.2221 8.65586C30.2221 9.24725 29.7221 9.67736 29.111 9.67736C28.4443 9.67736 27.9999 9.13973 28.0555 8.54833C28.111 7.95693 28.611 7.52682 29.2221 7.58059C29.8332 7.58059 30.2777 8.06446 30.2221 8.65586Z" fill="white"/>
<path d="M42.2222 31.828C42.2222 32.4194 41.7778 32.9032 41.1111 32.9032C40.5 32.9032 40 32.4731 40 31.828C40 31.2366 40.4444 30.7527 41.1111 30.7527C41.7778 30.8064 42.2222 31.2366 42.2222 31.828Z" fill="white"/>
<path d="M20.2224 41.5054C20.2224 42.043 19.778 42.5269 19.2224 42.5806C18.6113 42.5806 18.1113 42.0968 18.1113 41.5591C18.1113 41.0215 18.6113 40.5376 19.1669 40.5376C19.7224 40.4839 20.2224 40.914 20.2224 41.5054Z" fill="white"/>
<path d="M32.2223 41.5591C32.2223 42.0967 31.7223 42.5806 31.1667 42.5806C30.5556 42.5806 30.0556 42.043 30.1112 41.5053C30.1667 40.9677 30.6667 40.5376 31.2223 40.5376C31.7778 40.5376 32.2223 40.9677 32.2223 41.5591Z" fill="white"/>
<path d="M7.16688 23.172C6.61133 23.172 6.11133 22.6882 6.11133 22.1505C6.11133 21.6129 6.61133 21.129 7.16688 21.129C7.72244 21.129 8.22244 21.6129 8.22244 22.1505C8.22244 22.6882 7.72244 23.172 7.16688 23.172Z" fill="white"/>
<path d="M44.2223 22.1506C44.2223 22.6882 43.7779 23.1721 43.1668 23.1721C42.5557 23.1721 42.0557 22.6882 42.0557 22.0968C42.0557 21.5592 42.5557 21.0753 43.1112 21.0753C43.7223 21.1291 44.2223 21.613 44.2223 22.1506Z" fill="white"/>
<path d="M9.11122 30.8064C9.72233 30.8064 10.2223 31.2365 10.2223 31.8817C10.2223 32.4731 9.77789 32.9032 9.16678 32.9032C8.55566 32.9032 8.05566 32.4731 8.05566 31.8817C8.05566 31.2365 8.50011 30.8064 9.11122 30.8064Z" fill="white"/>
<path d="M8.22227 26.0753C8.22227 26.6129 7.72227 27.0968 7.16671 27.0968C6.5556 27.0968 6.0556 26.6129 6.11116 26.0215C6.16671 25.4839 6.61116 25 7.22227 25.0538C7.77782 25 8.22227 25.4839 8.22227 26.0753Z" fill="white"/>
<path d="M42.0557 26.0753C42.0557 25.5377 42.5001 25.0538 43.0557 25.0001C43.6668 24.9463 44.1668 25.4302 44.1668 26.0216C44.1668 26.613 43.6668 27.0968 43.1112 27.0968C42.5557 27.0431 42.1112 26.613 42.0557 26.0753Z" fill="white"/>
<path d="M16.2224 10.5914C16.2224 11.1828 15.7224 11.6129 15.1113 11.6129C14.5002 11.5591 14.1113 11.129 14.1113 10.5376C14.1113 9.94622 14.6113 9.51611 15.2224 9.51611C15.778 9.51611 16.2224 9.99998 16.2224 10.5914Z" fill="white"/>
<path d="M14.2223 12.4731C14.2223 13.0645 13.7779 13.5484 13.1668 13.5484C12.5557 13.5484 12.0557 13.1183 12.0557 12.4731C12.0557 11.8817 12.5001 11.4516 13.1112 11.4516C13.7223 11.3978 14.2223 11.8817 14.2223 12.4731Z" fill="white"/>
<path d="M38.2222 12.4732C38.2222 13.0646 37.7777 13.5484 37.111 13.4947C36.4999 13.4947 35.9999 13.0646 36.0555 12.4194C36.0555 11.828 36.4999 11.3441 37.1666 11.3979C37.7777 11.4516 38.2222 11.8818 38.2222 12.4732Z" fill="white"/>
<path d="M11.1668 15.4839C10.5557 15.4839 10.0557 15.0538 10.0557 14.4624C10.0557 13.871 10.5001 13.3871 11.1112 13.3871C11.7223 13.3871 12.1668 13.8172 12.1668 14.3548C12.2223 14.9462 11.7779 15.4301 11.1668 15.4839Z" fill="white"/>
<path d="M40.2223 14.4086C40.2223 15 39.7223 15.4839 39.1112 15.4301C38.5001 15.4301 38.0557 14.9463 38.0557 14.3549C38.0557 13.7635 38.5001 13.3334 39.1112 13.3334C39.7779 13.3871 40.2223 13.8172 40.2223 14.4086Z" fill="white"/>
<path d="M36.2224 10.5914C36.2224 11.1828 35.7224 11.6129 35.1113 11.6129C34.5002 11.5591 34.1113 11.129 34.1113 10.5376C34.1113 9.94622 34.6113 9.51611 35.2224 9.51611C35.778 9.51611 36.2224 9.99998 36.2224 10.5914Z" fill="white"/>
<path d="M9.16688 17.3656C8.61133 17.3656 8.11133 16.8818 8.11133 16.3441C8.11133 15.8065 8.61133 15.3226 9.16688 15.3226C9.72244 15.3226 10.2224 15.8065 10.2224 16.3441C10.2224 16.8818 9.72244 17.3656 9.16688 17.3656Z" fill="white"/>
<path d="M42.2224 16.3979C42.2224 16.9355 41.7224 17.4194 41.1669 17.4194C40.6113 17.4194 40.1113 16.9355 40.1113 16.3979C40.1113 15.8603 40.6113 15.3764 41.1669 15.3764C41.7224 15.3226 42.2224 15.8065 42.2224 16.3979Z" fill="white"/>
<path d="M34.1669 8.60214C34.1669 9.13978 33.6669 9.62365 33.1113 9.62365C32.5558 9.62365 32.1113 9.13978 32.1113 8.6559C32.1113 8.11827 32.6113 7.6344 33.1669 7.6344C33.7224 7.6344 34.1669 8.06451 34.1669 8.60214Z" fill="white"/>
<path d="M18.1669 8.60219C18.1669 9.13983 17.6669 9.6237 17.1113 9.6237C16.5558 9.6237 16.1113 9.13983 16.1113 8.60219C16.1113 8.06456 16.6113 7.58069 17.1669 7.58069C17.7224 7.63445 18.1669 8.06456 18.1669 8.60219Z" fill="white"/>
<path d="M43.1113 28.871C43.6669 28.871 44.1669 29.3011 44.1669 29.8387C44.2224 30.3763 43.7224 30.8602 43.1669 30.914C42.6113 30.914 42.1113 30.4301 42.1113 29.8925C42.1113 29.3548 42.6113 28.9247 43.1113 28.871Z" fill="white"/>
<path d="M8.16678 29.8924C8.16678 30.4301 7.66677 30.9139 7.11122 30.9139C6.55566 30.9139 6.11122 30.4838 6.05566 29.9462C6.05566 29.4086 6.55566 28.9247 7.11122 28.9247C7.66677 28.9247 8.16678 29.3548 8.16678 29.8924Z" fill="white"/>
<path d="M24.1668 43.3872C24.2224 42.8495 24.6668 42.4194 25.2224 42.4732C25.7779 42.5269 26.2224 43.0108 26.1668 43.5484C26.1113 44.0861 25.6668 44.4624 25.1113 44.4624C24.5557 44.4087 24.1113 43.9248 24.1668 43.3872Z" fill="white"/>
<path d="M23.1113 7.6882C22.5557 7.63444 22.1113 7.15057 22.1668 6.66669C22.2224 6.12906 22.7224 5.69895 23.2224 5.75272C23.7779 5.80648 24.2224 6.29035 24.1668 6.77422C24.1113 7.25809 23.6113 7.6882 23.1113 7.6882Z" fill="white"/>
<path d="M28.1669 6.72048C28.1669 7.25811 27.6669 7.68822 27.1113 7.68822C26.5558 7.68822 26.1113 7.20435 26.1113 6.66672C26.1113 6.12908 26.6113 5.69897 27.1669 5.69897C27.7224 5.69897 28.1669 6.18285 28.1669 6.72048Z" fill="white"/>
<path d="M12.1109 37.6344C12.1109 38.172 11.6665 38.6021 11.1109 38.6021C10.5554 38.6021 10.1665 38.172 10.1665 37.6344C10.1665 37.0967 10.6109 36.6666 11.1665 36.6666C11.7221 36.7204 12.1109 37.0967 12.1109 37.6344Z" fill="white"/>
<path d="M40.1665 37.6344C40.1665 38.172 39.7221 38.6021 39.1665 38.6021C38.611 38.6021 38.1665 38.172 38.1665 37.6344C38.1665 37.0967 38.611 36.7204 39.111 36.6666C39.6665 36.6666 40.111 37.0967 40.1665 37.6344Z" fill="white"/>
<path d="M44.1109 18.2795C44.1109 18.8171 43.6665 19.2473 43.1109 19.2473C42.5554 19.2473 42.1665 18.8171 42.1665 18.2795C42.1665 17.7419 42.6109 17.3118 43.1665 17.3118C43.7221 17.3655 44.1109 17.7419 44.1109 18.2795Z" fill="white"/>
<path d="M42.1109 35.6989C42.1109 36.2365 41.7221 36.6666 41.1665 36.6666C40.6109 36.6666 40.1665 36.2903 40.1665 35.6989C40.1665 35.1613 40.5554 34.7849 41.1109 34.7849C41.6665 34.7849 42.1109 35.1613 42.1109 35.6989Z" fill="white"/>
<path d="M14.1109 39.5699C14.1109 40.1075 13.7221 40.5376 13.1665 40.5376C12.6109 40.5376 12.1665 40.1075 12.1665 39.5699C12.1665 39.0322 12.6109 38.6559 13.1665 38.6559C13.7221 38.6559 14.1109 39.0322 14.1109 39.5699Z" fill="white"/>
<path d="M37.1665 40.5377C36.611 40.5377 36.1665 40.1613 36.1665 39.6237C36.1665 39.086 36.5554 38.6559 37.111 38.6022C37.6665 38.6022 38.1109 39.0323 38.1109 39.5699C38.1109 40.1075 37.7221 40.5377 37.1665 40.5377Z" fill="white"/>
<path d="M8.11095 18.2795C8.11095 18.8171 7.6665 19.2473 7.11095 19.2473C6.55539 19.2473 6.1665 18.8171 6.1665 18.2795C6.1665 17.7419 6.61095 17.3118 7.1665 17.3118C7.72206 17.3655 8.11095 17.7419 8.11095 18.2795Z" fill="white"/>
<path d="M31.1665 7.58064C30.6109 7.58064 30.1665 7.2043 30.1665 6.66666C30.1665 6.12903 30.5554 5.75269 31.1109 5.75269C31.6109 5.75269 32.0554 6.12903 32.0554 6.6129C32.1109 7.15053 31.7221 7.58064 31.1665 7.58064Z" fill="white"/>
<path d="M22.111 43.4946C22.111 44.0322 21.6665 44.4086 21.111 44.3548C20.5554 44.3548 20.1665 43.9247 20.2221 43.3871C20.2221 42.8494 20.6665 42.4731 21.2221 42.5268C21.7221 42.5268 22.111 42.9569 22.111 43.4946Z" fill="white"/>
<path d="M19.111 5.75269C19.6665 5.75269 20.0554 6.12903 20.111 6.66666C20.111 7.2043 19.7221 7.58064 19.1665 7.58064C18.6665 7.58064 18.2221 7.2043 18.2221 6.72043C18.1665 6.18279 18.5554 5.75269 19.111 5.75269Z" fill="white"/>
<path d="M46.1112 24.086C46.1112 24.6236 45.6667 25 45.1667 25C44.6667 25 44.2778 24.5698 44.2778 24.086C44.2778 23.5483 44.7223 23.172 45.2223 23.172C45.6667 23.2258 46.0556 23.6021 46.1112 24.086Z" fill="white"/>
<path d="M29.1665 42.5269C29.7221 42.5269 30.1109 42.957 30.1109 43.4946C30.1109 44.0322 29.6665 44.4086 29.1109 44.4086C28.5554 44.4086 28.1665 43.9785 28.1665 43.4408C28.1665 42.9032 28.6109 42.5269 29.1665 42.5269Z" fill="white"/>
<path d="M16.1111 41.5053C16.1111 42.043 15.7222 42.4731 15.1666 42.4731C14.6666 42.4731 14.2222 42.0967 14.2222 41.6129C14.2222 41.0752 14.6111 40.6451 15.1666 40.6451C15.6666 40.5914 16.0555 40.9677 16.1111 41.5053Z" fill="white"/>
<path d="M35.111 40.5914C35.6665 40.5914 36.0554 40.9678 36.111 41.5054C36.111 42.043 35.7221 42.4194 35.1665 42.4194C34.6665 42.4194 34.2221 42.043 34.2221 41.5592C34.1665 41.0215 34.5554 40.5914 35.111 40.5914Z" fill="white"/>
<path d="M9.16643 34.7849C9.72198 34.7849 10.1109 35.1613 10.1109 35.6989C10.1109 36.2365 9.72198 36.6129 9.16643 36.6129C8.61087 36.6129 8.22198 36.2365 8.22198 35.6989C8.16643 35.1613 8.61087 34.7849 9.16643 34.7849Z" fill="white"/>
<path d="M44.0554 33.7634C44.0554 34.2473 43.6665 34.6774 43.1109 34.6774C42.5554 34.6774 42.1665 34.2473 42.1665 33.7634C42.1665 33.2795 42.6109 32.9032 43.1109 32.9032C43.6665 32.9032 44.0554 33.2795 44.0554 33.7634Z" fill="white"/>
<path d="M7.11095 32.8495C7.61095 32.8495 8.05539 33.2796 8.05539 33.7635C8.05539 34.2473 7.61095 34.6774 7.11095 34.6774C6.61095 34.6774 6.1665 34.2473 6.1665 33.7635C6.22206 33.2796 6.61095 32.9033 7.11095 32.8495Z" fill="white"/>
<path d="M46.0553 27.957C46.0553 28.4409 45.6109 28.871 45.1109 28.8172C44.6109 28.8172 44.1664 28.3871 44.222 27.9032C44.222 27.4194 44.6664 26.9892 45.1664 27.043C45.6664 27.0968 46.0553 27.4731 46.0553 27.957Z" fill="white"/>
<path d="M6.05532 24.086C6.05532 24.5698 5.66643 25 5.16643 25C4.61087 25 4.16643 24.6236 4.22198 24.086C4.22198 23.6021 4.66643 23.172 5.16643 23.172C5.66643 23.172 6.05532 23.6021 6.05532 24.086Z" fill="white"/>
<path d="M5.22217 27.043C5.72217 27.0967 6.11106 27.5268 6.11106 28.0107C6.0555 28.4946 5.61106 28.8709 5.11106 28.8709C4.61106 28.8172 4.22217 28.3871 4.22217 27.9032C4.22217 27.4193 4.72217 27.043 5.22217 27.043Z" fill="white"/>
<path d="M10.0555 12.4732C10.0555 12.957 9.61106 13.3871 9.11106 13.3334C8.66661 13.3334 8.22217 12.9033 8.22217 12.4732C8.22217 11.9893 8.66661 11.5592 9.16661 11.613C9.66661 11.613 10.0555 12.0431 10.0555 12.4732Z" fill="white"/>
<path d="M41.1667 11.6129C41.6667 11.6129 42.1112 12.043 42.1112 12.5269C42.1112 13.0108 41.6667 13.4409 41.1667 13.3871C40.6112 13.3333 40.3334 13.0645 40.2779 12.5269C40.1667 12.043 40.6667 11.6129 41.1667 11.6129Z" fill="white"/>
<path d="M13.1666 7.74194C13.6666 7.74194 14.0555 8.17205 14.0555 8.60216C14.0555 9.08603 13.6111 9.51614 13.1111 9.46237C12.6111 9.46237 12.2222 9.03227 12.2222 8.60216C12.2777 8.11829 12.7222 7.74194 13.1666 7.74194Z" fill="white"/>
<path d="M37.1667 9.51614C36.6667 9.51614 36.2778 9.08603 36.2778 8.65592C36.2778 8.17205 36.7223 7.74194 37.2223 7.74194C37.7223 7.74194 38.1112 8.17205 38.1112 8.65592C38.0556 9.08603 37.6112 9.51614 37.1667 9.51614Z" fill="white"/>
<path d="M25.1667 5.5914C24.6667 5.5914 24.2778 5.21506 24.2778 4.73119C24.2778 4.24732 24.6667 3.87097 25.1667 3.87097C25.6667 3.87097 26.0556 4.24732 26.0556 4.73119C26.0556 5.16129 25.6112 5.5914 25.1667 5.5914Z" fill="white"/>
<path d="M33.2222 42.5807C33.6666 42.6344 34.1111 43.0108 34.0555 43.4947C34.0555 43.9785 33.5555 44.3549 33.0555 44.3549C32.5555 44.3011 32.2222 43.871 32.2222 43.4409C32.2777 42.9033 32.7222 42.5269 33.2222 42.5807Z" fill="white"/>
<path d="M38.222 10.4839C38.2775 10 38.722 9.62366 39.222 9.62366C39.722 9.67742 40.1109 10.1075 40.0553 10.5914C39.9998 11.0753 39.5553 11.3979 39.1109 11.3979C38.6109 11.3979 38.1664 10.9677 38.222 10.4839Z" fill="white"/>
<path d="M46.0555 20.2151C46.0555 20.6989 45.6111 21.1291 45.1111 21.1291C44.6111 21.1291 44.2222 20.6989 44.2222 20.2688C44.2222 19.785 44.6666 19.3549 45.1666 19.3549C45.6666 19.3549 46.0555 19.785 46.0555 20.2151Z" fill="white"/>
<path d="M5.11088 21.1291C4.61088 21.1291 4.16644 20.6989 4.22199 20.2151C4.22199 19.785 4.66644 19.3549 5.16644 19.3549C5.66644 19.3549 6.11088 19.785 6.05533 20.2688C6.05533 20.6989 5.61088 21.1291 5.11088 21.1291Z" fill="white"/>
<path d="M12.0555 10.5376C12.0555 11.0215 11.6666 11.4516 11.1666 11.4516C10.6666 11.4516 10.2222 11.0215 10.2222 10.5376C10.2777 9.99999 10.5555 9.73117 11.1111 9.67741C11.6111 9.62365 12.0555 10.0538 12.0555 10.5376Z" fill="white"/>
<path d="M17.2222 42.5807C17.6666 42.6344 18.1111 43.0108 18.0555 43.4947C18.0555 43.9785 17.5555 44.3549 17.0555 44.3549C16.5555 44.3011 16.2222 43.871 16.2222 43.4409C16.2777 42.9033 16.7222 42.5269 17.2222 42.5807Z" fill="white"/>
<path d="M8.00005 14.4624C7.9445 14.9463 7.55561 15.3226 7.05561 15.2688C6.55561 15.2151 6.27783 14.8925 6.27783 14.4086C6.27783 13.9247 6.72228 13.5484 7.22228 13.6022C7.66672 13.6022 8.05561 14.0323 8.00005 14.4624Z" fill="white"/>
<path d="M43.1665 13.5483C43.6665 13.5483 44.0554 13.9784 44.0554 14.4086C44.0554 14.8924 43.611 15.2688 43.111 15.215C42.611 15.1612 42.3332 14.8924 42.2777 14.3548C42.2221 13.9784 42.6665 13.5483 43.1665 13.5483Z" fill="white"/>
<path d="M5.1665 32.6344C4.61094 32.5807 4.27761 32.3119 4.33316 31.7742C4.33316 31.2366 4.6665 30.9678 5.1665 30.9678C5.72205 30.9678 5.99983 31.2904 5.99983 31.7742C5.99983 32.3656 5.6665 32.6344 5.1665 32.6344Z" fill="white"/>
<path d="M27.1112 46.1828C26.6112 46.1291 26.2778 45.8603 26.2778 45.3764C26.2778 44.8388 26.6112 44.5699 27.1112 44.5699C27.6667 44.5699 27.9445 44.8925 27.9445 45.3764C28.0001 45.914 27.6667 46.1828 27.1112 46.1828Z" fill="white"/>
<path d="M46 31.8817C45.9444 32.3656 45.6666 32.6882 45.1111 32.6882C44.6111 32.6882 44.2222 32.3118 44.2778 31.828C44.3333 31.3441 44.6666 31.0753 45.1666 31.0753C45.7222 31.0215 45.9444 31.3441 46 31.8817Z" fill="white"/>
<path d="M23.9998 45.3763C23.9443 45.9139 23.6665 46.1828 23.1109 46.1828C22.5554 46.1828 22.2776 45.8602 22.3331 45.3226C22.3331 44.7849 22.6665 44.5161 23.222 44.5699C23.722 44.5699 23.9443 44.9462 23.9998 45.3763Z" fill="white"/>
<path d="M35.1667 7.47313C34.6112 7.41937 34.2778 7.20432 34.2778 6.66668C34.2778 6.18281 34.5556 5.86023 35.1112 5.86023C35.6112 5.86023 35.9445 6.12905 35.9445 6.66668C36.0001 7.20432 35.6667 7.41937 35.1667 7.47313Z" fill="white"/>
<path d="M16.0002 6.66668C15.9446 7.15055 15.6668 7.47313 15.1668 7.47313C14.6668 7.47313 14.3335 7.15055 14.3335 6.66668C14.3335 6.18281 14.6668 5.86023 15.1668 5.86023C15.6668 5.86023 15.9446 6.18281 16.0002 6.66668Z" fill="white"/>
<path d="M29.1668 3.92468C29.6112 3.97845 29.9445 4.1935 30.0001 4.73113C30.0001 5.21501 29.7223 5.53759 29.2223 5.59135C28.7223 5.64511 28.3334 5.26877 28.3334 4.7849C28.2779 4.30103 28.6668 3.92468 29.1668 3.92468Z" fill="white"/>
<path d="M22.0002 4.73113C21.9446 5.21501 21.6668 5.53759 21.1668 5.53759C20.6668 5.53759 20.3335 5.26877 20.3335 4.73113C20.3335 4.24726 20.6113 3.92468 21.1668 3.92468C21.6668 3.92468 21.9446 4.24726 22.0002 4.73113Z" fill="white"/>
<path d="M45.9446 16.3441C45.889 16.828 45.6113 17.0968 45.1113 17.0968C44.6113 17.0968 44.3335 16.828 44.3335 16.3441C44.3335 15.8602 44.6113 15.5914 45.1113 15.5914C45.6668 15.5914 45.889 15.914 45.9446 16.3441Z" fill="white"/>
<path d="M33.3332 3.87097C33.5554 4.13979 33.8332 4.40861 33.8887 4.73119C33.9998 5.10753 33.4998 5.53764 33.0554 5.48387C32.6109 5.43011 32.2776 5.10753 32.3887 4.67742C32.4443 4.35484 32.7776 4.13979 32.9998 3.87097C33.1109 3.87097 33.2221 3.87097 33.3332 3.87097Z" fill="white"/>
<path d="M17.278 3.87097C17.5002 4.13979 17.8335 4.40861 17.8891 4.73119C17.9447 5.16129 17.6113 5.48388 17.1669 5.48388C16.7224 5.48388 16.3335 5.21506 16.3891 4.78495C16.4447 4.46237 16.778 4.19355 16.9447 3.92474C17.0558 3.87097 17.1669 3.87097 17.278 3.87097Z" fill="white"/>
<path d="M6.9444 38.4946C6.72218 38.2257 6.4444 37.9569 6.38885 37.6344C6.33329 37.2042 6.66663 36.9354 7.16663 36.9354C7.61107 36.9354 7.9444 37.258 7.88885 37.6881C7.83329 38.0107 7.49996 38.2257 7.27774 38.5483C7.16663 38.4946 7.05552 38.4946 6.9444 38.4946Z" fill="white"/>
<path d="M43.3887 38.4409C42.722 38.3871 42.3887 38.1183 42.3887 37.6344C42.3887 37.2043 42.6664 36.8817 43.1109 36.8817C43.6109 36.8817 43.9442 37.1505 43.8887 37.6344C43.8331 37.957 43.4998 38.2258 43.3887 38.4409Z" fill="white"/>
<path d="M9.94423 39.5698C9.88867 40.0537 9.61089 40.3225 9.16645 40.3225C8.66645 40.3225 8.38867 39.9999 8.38867 39.5698C8.38867 39.1397 8.66645 38.8709 9.16645 38.8171C9.61089 38.8171 9.88867 39.086 9.94423 39.5698Z" fill="white"/>
<path d="M41.1666 38.8171C41.6666 38.8709 41.9444 39.1397 41.9444 39.6236C41.9444 40.1075 41.6111 40.3763 41.1111 40.3763C40.6666 40.3763 40.3888 40.0537 40.3888 39.6236C40.3333 39.086 40.6666 38.8709 41.1666 38.8171Z" fill="white"/>
<path d="M11.3335 42.3118C10.6668 42.2043 10.3335 41.9355 10.3335 41.4516C10.3335 41.0215 10.6668 40.7527 11.1113 40.7527C11.6113 40.7527 11.9446 41.0753 11.8891 41.5591C11.8335 41.828 11.5002 42.0968 11.3335 42.3118Z" fill="white"/>
<path d="M39.9444 41.5054C39.8888 41.9892 39.6111 42.2581 39.1111 42.2581C38.6111 42.2581 38.3333 41.9355 38.3888 41.4516C38.3888 41.0215 38.7222 40.7527 39.1666 40.7527C39.6111 40.7527 39.8888 41.0753 39.9444 41.5054Z" fill="white"/>
<path d="M19.9446 45.3226C19.8891 45.8065 19.6113 46.1291 19.1113 46.1291C18.6113 46.1291 18.3335 45.8065 18.3335 45.3226C18.3335 44.8925 18.6113 44.6237 19.1113 44.5699C19.6113 44.6237 19.8891 44.9463 19.9446 45.3226Z" fill="white"/>
<path d="M31.1113 46.1828C30.6113 46.129 30.3335 45.8602 30.3335 45.3763C30.3335 44.8925 30.6113 44.6237 31.1113 44.6237C31.6113 44.6237 31.8891 44.8925 31.8891 45.3763C31.9446 45.8602 31.6113 46.129 31.1113 46.1828Z" fill="white"/>
<path d="M3.16663 25.2688C3.66663 25.3226 3.9444 25.5914 3.9444 26.0753C3.9444 26.5591 3.61107 26.8279 3.11107 26.8279C2.66663 26.8279 2.38885 26.5054 2.38885 26.0753C2.33329 25.5376 2.66663 25.3226 3.16663 25.2688Z" fill="white"/>
<path d="M46.9444 21.3441C47.6111 21.4516 47.9444 21.6667 47.9444 22.1506C47.9444 22.5807 47.6666 22.9033 47.1666 22.9033C46.6666 22.9033 46.3333 22.5807 46.3888 22.1506C46.4444 21.828 46.7777 21.5592 46.9444 21.3441Z" fill="white"/>
<path d="M47.9446 26.0753C47.8891 26.5592 47.6113 26.828 47.1113 26.828C46.6113 26.828 46.3335 26.5054 46.3335 26.0215C46.3335 25.5914 46.6668 25.3226 47.1113 25.3226C47.6668 25.2689 47.8891 25.5914 47.9446 26.0753Z" fill="white"/>
<path d="M3.33323 22.957C2.66656 22.8494 2.33323 22.5806 2.38879 22.0968C2.44434 21.6666 2.72212 21.3978 3.16656 21.3978C3.66656 21.3978 3.9999 21.7204 3.88879 22.2043C3.83323 22.5269 3.4999 22.7419 3.33323 22.957Z" fill="white"/>
<path d="M5.22238 17.1506C4.66683 17.0968 4.38905 16.8818 4.3335 16.3979C4.3335 15.914 4.61127 15.6452 5.11127 15.5914C5.61127 15.5914 5.88905 15.8602 5.94461 16.3441C5.94461 16.828 5.66683 17.043 5.22238 17.1506Z" fill="white"/>
<path d="M38 43.6022C37.7223 43.7635 37.3889 44.1398 37.1111 44.1398C36.8334 44.1398 36.5 43.7635 36.4445 43.4409C36.3334 43.0108 36.7223 42.6882 37.1667 42.7419C37.4445 42.7957 37.7223 43.1183 38 43.2796C38 43.3871 38 43.4946 38 43.6022Z" fill="white"/>
<path d="M47.9999 30.1075C47.7222 30.2688 47.3888 30.5914 47.1111 30.6452C46.6666 30.6989 46.3333 30.3226 46.4444 29.8925C46.4999 29.6237 46.9444 29.2473 47.1666 29.2473C47.4444 29.2473 47.7222 29.6237 47.9999 29.7849C47.9999 29.8925 47.9999 30 47.9999 30.1075Z" fill="white"/>
<path d="M14.0001 43.6022C13.7223 43.8172 13.5001 44.0861 13.1668 44.1398C12.7223 44.1936 12.389 43.871 12.4445 43.4409C12.4445 43.0108 12.7779 42.6882 13.1668 42.7957C13.4445 42.8495 13.7223 43.1183 14.0001 43.3334C14.0001 43.3871 14.0001 43.4947 14.0001 43.6022Z" fill="white"/>
<path d="M3.33343 29.0861C3.5001 29.3549 3.83343 29.6237 3.88899 29.8925C3.94454 30.3226 3.61121 30.5914 3.11121 30.5914C2.66677 30.5914 2.38899 30.2689 2.44454 29.8925C2.5001 29.6237 2.83343 29.3549 3.0001 29.0861C3.11121 29.0861 3.22232 29.0861 3.33343 29.0861Z" fill="white"/>
<path d="M47.2779 17.5269C47.4445 17.7957 47.7223 18.0107 47.7779 18.2795C47.8334 18.7097 47.5557 18.9785 47.1112 18.9785C46.6668 18.9785 46.389 18.7097 46.4445 18.2795C46.5001 18.0107 46.7779 17.7957 46.9445 17.5269C47.1112 17.5269 47.2223 17.5269 47.2779 17.5269Z" fill="white"/>
<path d="M3.94465 18.4408C3.66688 18.6021 3.44465 18.8709 3.16687 18.9247C2.72243 18.9785 2.44465 18.7096 2.50021 18.2795C2.50021 17.8494 2.77799 17.5806 3.16687 17.6881C3.44465 17.7419 3.66688 18.0107 3.94465 18.172C3.94465 18.2258 3.94465 18.3333 3.94465 18.4408Z" fill="white"/>
<path d="M5.33323 34.9463C5.49989 35.2151 5.77767 35.4839 5.77767 35.7527C5.83322 36.1828 5.44434 36.4517 5.05545 36.3441C4.77767 36.2904 4.44434 35.914 4.44434 35.699C4.44434 35.4302 4.77767 35.1613 4.94434 34.9463C5.111 34.9463 5.22211 34.9463 5.33323 34.9463Z" fill="white"/>
<path d="M25.9445 47.4732C25.6667 47.6345 25.3889 47.957 25.1667 47.9033C24.9445 47.8495 24.5556 47.5269 24.5001 47.3119C24.3889 46.8818 24.7223 46.613 25.1667 46.6667C25.4445 46.7205 25.6667 46.9893 25.9445 47.1506C25.9445 47.3119 25.9445 47.4194 25.9445 47.4732Z" fill="white"/>
<path d="M44.9445 36.5054C44.7779 36.2366 44.5001 35.9678 44.4445 35.699C44.389 35.2689 44.7223 35.0001 45.1668 35.0538C45.4445 35.1076 45.7779 35.4839 45.7779 35.699C45.7779 35.9678 45.4445 36.2366 45.2779 36.5054C45.1668 36.5054 45.0556 36.5054 44.9445 36.5054Z" fill="white"/>
<path d="M27.9445 2.95703C27.6668 3.11832 27.389 3.38714 27.1112 3.4409C26.6668 3.49467 26.389 3.17209 26.4445 2.79574C26.5001 2.52693 26.8334 2.20435 27.1112 2.20435C27.389 2.20435 27.6668 2.52693 27.9445 2.68822C27.9445 2.74198 27.9445 2.84951 27.9445 2.95703Z" fill="white"/>
<path d="M23.9445 3.01073C23.6668 3.17202 23.389 3.44084 23.1112 3.44084C22.6668 3.4946 22.389 3.11825 22.5001 2.74191C22.5556 2.47309 22.9445 2.15051 23.1668 2.15051C23.4445 2.15051 23.7223 2.47309 23.9445 2.63438C23.9445 2.79567 23.9445 2.9032 23.9445 3.01073Z" fill="white"/>
<path d="M39.2776 5.91394C39.4443 6.18276 39.7776 6.39781 39.7776 6.66663C39.7776 6.88168 39.3887 7.09674 39.1665 7.31179C38.9443 7.09674 38.5554 6.88168 38.4998 6.66663C38.4443 6.45157 38.7776 6.18276 38.9443 5.9677C39.1109 5.9677 39.1665 5.9677 39.2776 5.91394Z" fill="white"/>
<path d="M43 11.2903C42.8333 11.0215 42.5 10.8064 42.5 10.5914C42.5 10.3763 42.8889 10.1613 43.1111 9.89246C43.3333 10.1075 43.7222 10.2688 43.7778 10.5376C43.8333 10.7527 43.5 11.0215 43.3333 11.2903C43.2222 11.2903 43.1111 11.2903 43 11.2903Z" fill="white"/>
<path d="M35.3333 44.6774C35.4999 44.9462 35.7777 45.2151 35.7777 45.4301C35.7777 45.6452 35.3333 46.0215 35.1666 45.9677C34.8888 45.914 34.5555 45.5914 34.5555 45.3763C34.4999 45.1613 34.8333 44.8925 34.9999 44.6237C35.111 44.6237 35.2222 44.6237 35.3333 44.6774Z" fill="white"/>
<path d="M9.33333 7.84949C9.5 8.1183 9.83333 8.38712 9.77778 8.60218C9.72222 8.81723 9.33333 9.19357 9.11111 9.19357C8.88889 9.19357 8.55556 8.81723 8.5 8.54841C8.5 8.33336 8.83333 8.06454 9 7.84949C9.11111 7.84949 9.22222 7.84949 9.33333 7.84949Z" fill="white"/>
<path d="M40.9443 9.35488C40.7776 9.08606 40.4443 8.81725 40.4998 8.60219C40.5554 8.38714 40.8887 8.17209 41.1665 7.95703C41.3887 8.17209 41.7776 8.38714 41.7776 8.60219C41.7776 8.81725 41.4443 9.08606 41.2776 9.35488C41.1665 9.35488 41.0554 9.35488 40.9443 9.35488Z" fill="white"/>
<path d="M7.88889 10.6452C7.61111 10.8065 7.38889 11.1291 7.11111 11.1291C6.88889 11.1291 6.5 10.7527 6.5 10.5377C6.44444 10.3764 6.83333 9.94629 7.05555 9.94629C7.33333 9.94629 7.61111 10.2151 7.83333 10.3764C7.88889 10.4839 7.88889 10.5914 7.88889 10.6452Z" fill="white"/>
<path d="M15.8889 45.5377C15.6111 45.699 15.3333 46.0216 15.1111 45.9678C14.8889 45.9678 14.5 45.5377 14.5 45.3764C14.5556 45.1076 14.8889 44.8388 15.1667 44.785C15.3889 44.7312 15.6667 45.1076 15.8889 45.2689C15.8889 45.3764 15.8889 45.4302 15.8889 45.5377Z" fill="white"/>
<path d="M32.0556 2.8495C31.6111 3.11832 31.3333 3.4409 31.1111 3.38714C30.8889 3.33337 30.6667 3.01079 30.5 2.79574C30.7222 2.58068 30.9444 2.2581 31.1667 2.2581C31.3889 2.20434 31.6667 2.52692 32.0556 2.8495Z" fill="white"/>
<path d="M20.0557 2.8495C19.6112 3.11832 19.3334 3.4409 19.1112 3.38714C18.889 3.33337 18.5001 3.01079 18.5557 2.79574C18.5557 2.58068 18.9445 2.2581 19.1668 2.2581C19.389 2.20434 19.6668 2.52692 20.0557 2.8495Z" fill="white"/>
<path d="M29.8888 47.4731C29.611 47.6344 29.3888 47.957 29.111 47.957C28.8888 47.957 28.6666 47.5806 28.4443 47.3656C28.6666 47.1505 28.8888 46.8279 29.111 46.7742C29.3332 46.7204 29.611 47.043 29.8332 47.2043C29.8888 47.258 29.8888 47.3656 29.8888 47.4731Z" fill="white"/>
<path d="M22.1112 47.3656C21.6668 47.6344 21.389 47.9033 21.1112 47.9033C20.889 47.9033 20.5001 47.4731 20.5557 47.3119C20.6112 47.043 20.9446 46.7742 21.2223 46.7205C21.389 46.7205 21.6668 47.043 22.1112 47.3656Z" fill="white"/>
<path d="M11.1665 5.75269C11.4443 6.18279 11.7776 6.45161 11.7776 6.66666C11.7776 6.88172 11.3888 7.09677 11.1665 7.31183C10.9443 7.09677 10.611 6.88172 10.5554 6.66666C10.4999 6.45161 10.8332 6.18279 11.1665 5.75269Z" fill="white"/>
<path d="M6.00011 12.4731C5.66678 12.7419 5.389 13.0645 5.22233 13.0645C5.00011 13.0108 4.77789 12.7419 4.55566 12.5269C4.77789 12.3118 4.94455 11.9893 5.16678 11.9355C5.33344 11.8817 5.61122 12.2043 6.00011 12.4731Z" fill="white"/>
<path d="M45.889 12.5806C45.6668 12.7419 45.389 13.0645 45.1668 13.0107C44.9446 12.957 44.6112 12.6344 44.5557 12.4193C44.5001 12.2581 44.889 11.8817 45.1112 11.8817C45.3334 11.8817 45.6112 12.1505 45.8334 12.3118C45.889 12.4193 45.889 12.5269 45.889 12.5806Z" fill="white"/>
<path d="M47.8334 33.8709C47.6112 34.0322 47.3334 34.3548 47.1112 34.301C46.889 34.2473 46.5557 33.9247 46.5557 33.7096C46.5557 33.5483 46.889 33.172 47.1112 33.172C47.3334 33.172 47.6112 33.4408 47.8334 33.6021C47.8334 33.7096 47.8334 33.8172 47.8334 33.8709Z" fill="white"/>
<path d="M3.11115 34.5698C2.83338 34.1935 2.5556 33.9247 2.61115 33.7634C2.66671 33.5483 3.00004 33.3871 3.22227 33.172C3.38893 33.3871 3.72227 33.6021 3.72227 33.7634C3.72227 34.0322 3.38893 34.2473 3.11115 34.5698Z" fill="white"/>
<path d="M49.1669 27.1505C49.4447 27.5269 49.6669 27.7419 49.6669 27.957C49.6669 28.1183 49.278 28.4946 49.1669 28.4408C48.9447 28.3871 48.6669 28.1183 48.6113 27.9032C48.6113 27.7957 48.8891 27.5269 49.1669 27.1505Z" fill="white"/>
<path d="M13.1113 5.53764C12.8891 5.16129 12.6113 4.94624 12.6113 4.78495C12.6669 4.5699 12.9447 4.4086 13.1669 4.24731C13.3336 4.46237 13.6113 4.62366 13.6669 4.83871C13.6669 5 13.3891 5.16129 13.1113 5.53764Z" fill="white"/>
<path d="M49.1667 24.8924C48.8889 24.5161 48.5556 24.301 48.6111 24.086C48.6111 23.8709 48.9444 23.5483 49.1111 23.5483C49.2778 23.5483 49.6667 23.8709 49.6667 24.0322C49.7222 24.2473 49.4444 24.5161 49.1667 24.8924Z" fill="white"/>
<path d="M38.0002 4.73115C37.6113 4.99996 37.3336 5.26878 37.1669 5.26878C36.9447 5.26878 36.6669 4.9462 36.6113 4.73115C36.6113 4.56986 36.9447 4.24728 37.1113 4.24728C37.3336 4.19351 37.5558 4.46233 38.0002 4.73115Z" fill="white"/>
<path d="M2.00022 24.1398C1.55577 24.4086 1.33355 24.6236 1.11133 24.6236C0.944661 24.6236 0.611328 24.2473 0.611328 24.1398C0.666884 23.9247 0.944661 23.6559 1.16688 23.6021C1.33355 23.5484 1.61133 23.8709 2.00022 24.1398Z" fill="white"/>
<path d="M17.1669 46.6129C17.3891 46.9893 17.6113 47.2043 17.6113 47.3656C17.6113 47.5269 17.2224 47.8495 17.1113 47.7957C16.8891 47.7419 16.6669 47.4731 16.6113 47.2581C16.6113 47.0968 16.8891 46.9355 17.1669 46.6129Z" fill="white"/>
<path d="M33.1113 48.0646C32.8891 47.6882 32.6113 47.4732 32.6669 47.2581C32.6669 47.0968 33.0557 46.7742 33.1669 46.828C33.3891 46.8818 33.6113 47.1506 33.6669 47.3656C33.6669 47.5269 33.3891 47.742 33.1113 48.0646Z" fill="white"/>
<path d="M47.1665 15.1613C46.9443 14.785 46.6665 14.5699 46.6665 14.4086C46.6665 14.2473 46.9998 13.9247 47.1665 13.9785C47.3887 14.0323 47.6665 14.3011 47.6665 14.4624C47.6665 14.6237 47.3887 14.8387 47.1665 15.1613Z" fill="white"/>
<path d="M1.94466 27.957C1.55577 28.2258 1.33355 28.4947 1.16688 28.4409C0.944661 28.4409 0.777995 28.1183 0.611328 27.957C0.777995 27.7957 0.944661 27.4731 1.16688 27.4731C1.33355 27.4731 1.55577 27.6882 1.94466 27.957Z" fill="white"/>
<path d="M3.88873 14.4623C3.55539 14.6774 3.33317 14.9462 3.1665 14.8924C2.94428 14.8387 2.83317 14.5698 2.6665 14.3548C2.83317 14.1935 2.99984 13.9247 3.22206 13.9247C3.33317 13.9247 3.55539 14.1935 3.88873 14.4623Z" fill="white"/>
<path d="M0.388672 20.2151C0.722005 20 0.944228 19.7312 1.16645 19.7312C1.33312 19.7312 1.49978 20 1.66645 20.1613C1.49978 20.3226 1.33312 20.5914 1.11089 20.6452C0.944228 20.7527 0.722005 20.4839 0.388672 20.2151Z" fill="white"/>
<path d="M48.3887 20.2151C48.7776 19.9463 48.9442 19.7312 49.1665 19.7312C49.3331 19.7312 49.4998 20.0538 49.6665 20.2151C49.4998 20.3764 49.3331 20.6452 49.1109 20.6989C48.9442 20.7527 48.722 20.4839 48.3887 20.2151Z" fill="white"/>
<path d="M25.1665 0.215088C25.3887 0.537669 25.6109 0.752722 25.5554 0.914012C25.5554 1.0753 25.2221 1.34412 25.1109 1.29036C24.9443 1.23659 24.6665 1.02154 24.6665 0.806486C24.6665 0.698959 24.9443 0.483905 25.1665 0.215088Z" fill="white"/>
<path d="M35.8332 2.84942C35.4998 3.06447 35.2776 3.27952 35.111 3.22576C34.9443 3.172 34.6665 2.90318 34.7221 2.79565C34.7221 2.63436 34.9998 2.41931 35.1665 2.41931C35.3332 2.36555 35.4998 2.63436 35.8332 2.84942Z" fill="white"/>
<path d="M7.83328 41.5591C7.49995 41.7742 7.27772 41.9892 7.16661 41.9355C6.99995 41.8817 6.88883 41.6667 6.72217 41.5054C6.88883 41.3441 7.0555 41.129 7.22217 41.129C7.33328 41.0753 7.49995 41.3441 7.83328 41.5591Z" fill="white"/>
<path d="M43.1665 42.1505C42.9443 41.8817 42.6665 41.7204 42.722 41.5591C42.7776 41.3441 42.9998 41.2365 43.1665 41.0215C43.3331 41.1828 43.6109 41.3441 43.6109 41.5054C43.6109 41.6666 43.3887 41.8817 43.1665 42.1505Z" fill="white"/>
<path d="M41.1109 42.7957C41.3331 43.1182 41.6109 43.2795 41.5553 43.4408C41.5553 43.6021 41.2776 43.8709 41.1665 43.8709C40.9998 43.8709 40.722 43.6559 40.722 43.4946C40.6665 43.3333 40.8887 43.1182 41.1109 42.7957Z" fill="white"/>
<path d="M1.22206 31.2366C1.38872 31.5592 1.55539 31.7204 1.55539 31.8817C1.55539 32.043 1.22206 32.2581 1.1665 32.2043C0.999835 32.1506 0.777613 31.9355 0.777613 31.7742C0.722057 31.6667 0.94428 31.5054 1.22206 31.2366Z" fill="white"/>
<path d="M11.7222 45.3763C11.4444 45.5376 11.2778 45.7526 11.1111 45.7526C11 45.7526 10.7222 45.4838 10.7778 45.4301C10.8333 45.2688 11 45.1075 11.1667 45.0537C11.2778 44.9999 11.4444 45.215 11.7222 45.3763Z" fill="white"/>
<path d="M39.1666 45.9677C38.9443 45.6989 38.7221 45.5376 38.7777 45.4301C38.7777 45.2688 38.9999 45.1075 39.1666 45.0537C39.2777 45.0537 39.4999 45.2688 39.4999 45.3763C39.5555 45.4838 39.3332 45.6451 39.1666 45.9677Z" fill="white"/>
<path d="M23.1111 49.8387C22.9444 49.5699 22.7222 49.4086 22.7222 49.2473C22.7222 49.086 22.9999 48.9785 23.1111 48.871C23.2222 49.0323 23.4444 49.1398 23.4999 49.3011C23.5555 49.4086 23.3333 49.5699 23.1111 49.8387Z" fill="white"/>
<path d="M27.7222 49.2473C27.4444 49.4624 27.2777 49.6237 27.1666 49.6237C26.9999 49.6237 26.8888 49.4086 26.7222 49.2473C26.8333 49.086 26.9999 48.871 27.1111 48.871C27.2777 48.871 27.4444 49.086 27.7222 49.2473Z" fill="white"/>
<path d="M48.4443 31.828C48.7777 31.613 48.9999 31.4517 49.1666 31.4517C49.3332 31.5054 49.4999 31.7205 49.5554 31.9355C49.5554 32.0431 49.2777 32.2581 49.111 32.2581C48.9443 32.2581 48.7777 32.0431 48.4443 31.828Z" fill="white"/>
<path d="M49.6666 16.3441C49.4444 16.5054 49.2777 16.7204 49.1666 16.7204C48.9999 16.6666 48.8888 16.4516 48.7222 16.3441C48.8333 16.2365 48.9999 16.0215 49.1111 16.0215C49.2777 15.9677 49.4444 16.1828 49.6666 16.3441Z" fill="white"/>
<path d="M9.83328 43.4947C9.49995 43.7097 9.27772 43.871 9.11106 43.871C8.94439 43.8173 8.77772 43.6022 8.72217 43.3872C8.72217 43.2796 8.99995 43.0646 9.16661 43.0646C9.33328 43.0646 9.49995 43.2796 9.83328 43.4947Z" fill="white"/>
<path d="M14.4443 2.79566C14.7777 2.5806 14.9999 2.41931 15.1666 2.41931C15.3332 2.41931 15.5554 2.68813 15.5554 2.84942C15.5554 2.95695 15.2777 3.172 15.111 3.172C14.9443 3.22576 14.7777 3.01071 14.4443 2.79566Z" fill="white"/>
<path d="M21.1111 1.45156C20.9444 1.18274 20.7222 1.02145 20.7222 0.860161C20.7777 0.698871 20.9999 0.591344 21.1666 0.430054C21.2777 0.591344 21.4999 0.698871 21.4999 0.860161C21.5555 1.02145 21.3333 1.18274 21.1111 1.45156Z" fill="white"/>
<path d="M29.1666 0.322632C29.3333 0.591449 29.5555 0.752739 29.4999 0.91403C29.4444 1.07532 29.2222 1.18285 29.0555 1.34414C28.9444 1.18285 28.7222 1.07532 28.7222 0.91403C28.7222 0.698976 28.9444 0.537686 29.1666 0.322632Z" fill="white"/>
<path d="M45.7777 39.6237C45.4444 39.785 45.2777 39.9463 45.1111 39.9463C44.9444 39.9463 44.7222 39.6237 44.7777 39.5699C44.8333 39.4087 45.0555 39.1936 45.2222 39.1936C45.3333 39.1936 45.5 39.4087 45.7777 39.6237Z" fill="white"/>
</g>
<path d="M19.6252 29H16.7892V21H19.6486C20.4533 21 21.146 21.1602 21.7267 21.4805C22.3075 21.7982 22.7541 22.2552 23.0666 22.8516C23.3817 23.4479 23.5392 24.1615 23.5392 24.9922C23.5392 25.8255 23.3817 26.5417 23.0666 27.1406C22.7541 27.7396 22.3049 28.1992 21.7189 28.5195C21.1356 28.8398 20.4377 29 19.6252 29ZM18.4806 27.5508H19.5549C20.0549 27.5508 20.4754 27.4622 20.8166 27.2852C21.1603 27.1055 21.4181 26.8281 21.59 26.4531C21.7645 26.0755 21.8517 25.5885 21.8517 24.9922C21.8517 24.401 21.7645 23.918 21.59 23.543C21.4181 23.168 21.1616 22.8919 20.8205 22.7148C20.4793 22.5378 20.0588 22.4492 19.5588 22.4492H18.4806V27.5508Z" fill="black"/>
<path d="M9.42425 29H7.61175L10.3735 21H12.5532L15.311 29H13.4985L11.4946 22.8281H11.4321L9.42425 29ZM9.31097 25.8555H13.5922V27.1758H9.31097V25.8555Z" fill="black"/>
<path d="M25.2819 21H27.3679L29.571 26.375H29.6648L31.8679 21H33.9538V29H32.3132V23.793H32.2468L30.1765 28.9609H29.0593L26.989 23.7734H26.9226V29H25.2819V21Z" fill="#444444"/>
<path d="M40.2763 23.3008C40.245 22.9857 40.1109 22.7409 39.8739 22.5664C39.637 22.3919 39.3153 22.3047 38.9091 22.3047C38.633 22.3047 38.4 22.3437 38.2099 22.4219C38.0198 22.4974 37.8739 22.6029 37.7724 22.7383C37.6734 22.8737 37.6239 23.0273 37.6239 23.1992C37.6187 23.3424 37.6487 23.4674 37.7138 23.5742C37.7815 23.681 37.8739 23.7734 37.9911 23.8516C38.1083 23.9271 38.2437 23.9935 38.3974 24.0508C38.551 24.1055 38.7151 24.1523 38.8896 24.1914L39.6083 24.3633C39.9573 24.4414 40.2776 24.5456 40.5692 24.6758C40.8609 24.806 41.1135 24.9661 41.3271 25.1562C41.5406 25.3464 41.706 25.5703 41.8231 25.8281C41.9429 26.0859 42.0041 26.3815 42.0067 26.7148C42.0041 27.2044 41.8791 27.6289 41.6317 27.9883C41.387 28.3451 41.0328 28.6224 40.5692 28.8203C40.1083 29.0156 39.5523 29.1133 38.9013 29.1133C38.2554 29.1133 37.6929 29.0143 37.2138 28.8164C36.7372 28.6185 36.3648 28.3255 36.0966 27.9375C35.831 27.5469 35.6916 27.0638 35.6786 26.4883H37.3153C37.3336 26.7565 37.4104 26.9805 37.5458 27.1602C37.6838 27.3372 37.8674 27.4714 38.0966 27.5625C38.3284 27.651 38.5901 27.6953 38.8817 27.6953C39.1682 27.6953 39.4169 27.6536 39.6278 27.5703C39.8414 27.487 40.0067 27.3711 40.1239 27.2227C40.2411 27.0742 40.2997 26.9036 40.2997 26.7109C40.2997 26.5312 40.2463 26.3802 40.1396 26.2578C40.0354 26.1354 39.8817 26.0312 39.6786 25.9453C39.4781 25.8594 39.232 25.7812 38.9403 25.7109L38.0692 25.4922C37.3948 25.3281 36.8622 25.0716 36.4716 24.7227C36.081 24.3737 35.887 23.9036 35.8896 23.3125C35.887 22.8281 36.0159 22.4049 36.2763 22.043C36.5393 21.681 36.9 21.3984 37.3583 21.1953C37.8166 20.9922 38.3375 20.8906 38.9208 20.8906C39.5146 20.8906 40.0328 20.9922 40.4755 21.1953C40.9208 21.3984 41.2672 21.681 41.5146 22.043C41.762 22.4049 41.8896 22.8242 41.8974 23.3008H40.2763Z" fill="#444444"/>
</g>
<defs>
<radialGradient id="paint0_radial_55_399" cx="0" cy="0" r="1" gradientUnits="userSpaceOnUse" gradientTransform="translate(24.9997 25) rotate(-90) scale(25)">
<stop stop-color="white"/>
<stop offset="1" stop-color="#FEDCDC"/>
</radialGradient>
<clipPath id="clip0_55_399">
<rect width="50" height="50" rx="25" fill="white"/>
</clipPath>
<clipPath id="clip1_55_399">
<rect width="50" height="50" fill="white"/>
</clipPath>
</defs>
</svg>
